<svg width="100" height="100" viewBox="0 0 100 100" fill="none" xmlns="http://www.w3.org/2000/svg">
	<g clip-path="url(#clip0_3_26)">
	<path fill-rule="evenodd" clip-rule="evenodd" d="M50 100C77.6142 100 100 77.6142 100 50C100 22.3858 77.6142 0 50 0C22.3858 0 0 22.3858 0 50C0 77.6142 22.3858 100 50 100ZM50 85C69.33 85 85 69.33 85 50C85 30.67 69.33 15 50 15C30.67 15 15 30.67 15 50C15 69.33 30.67 85 50 85Z" fill="url(#paint0_linear_3_26)"/>
	</g>
	<defs>
	<linearGradient id="paint0_linear_3_26" x1="1.65754e-05" y1="4.65448e-06" x2="100" y2="100" gradientUnits="userSpaceOnUse">
	<stop offset="0.15" stop-color="#DBD053"/>
	<stop offset="0.85" stop-color="#F26430"/>
	</linearGradient>
	<clipPath id="clip0_3_26">
	<rect width="100" height="100" fill="white"/>
	</clipPath>
	</defs>
	</svg>
	