<svg width="100" height="100" viewBox="0 0 100 100" fill="none" xmlns="http://www.w3.org/2000/svg">
	<g clip-path="url(#clip0_1_2)">
		<path fill-rule="evenodd" clip-rule="evenodd"
			d="M2.1967 87.1933C-0.732233 90.1222 -0.732233 94.8709 2.1967 97.7999C5.12563 100.729 9.87438 100.729 12.8033 97.7999L49.9983 60.6049L87.1933 97.7999C90.1222 100.729 94.8709 100.729 97.7999 97.7999C100.729 94.8709 100.729 90.1222 97.7999 87.1933L60.6049 49.9983L97.7999 12.8033C100.729 9.87437 100.729 5.12563 97.7999 2.19669C94.8709 -0.732239 90.1222 -0.732236 87.1933 2.1967L49.9983 39.3917L12.8033 2.1967C9.87437 -0.732237 5.12563 -0.732237 2.1967 2.1967C-0.732233 5.12563 -0.73223 9.87437 2.1967 12.8033L39.3917 49.9983L2.1967 87.1933Z"
			fill="url(#paint0_linear_1_2)" />
	</g>
	<defs>
		<linearGradient id="paint0_linear_1_2" x1="99.9932" y1="99.9932" x2="0.00342692" y2="0.00341125"
			gradientUnits="userSpaceOnUse">
			<stop offset="0.0224451" stop-color="#6761A8" />
			<stop offset="0.976963" stop-color="#009DDC" />
		</linearGradient>
		<clipPath id="clip0_1_2">
			<rect width="100" height="100" fill="white" />
		</clipPath>
	</defs>
</svg>
	